<svg width="283" height="32" viewBox="0 0 283 32" fill="none" xmlns="http://www.w3.org/2000/svg">
<path d="M237.637 0.0568038C237.127 0.0803087 236.795 0.315358 236.795 0.816797V23.2464C236.795 23.6362 237.076 23.9887 237.508 23.9887H277.644C278.003 23.9887 278.294 23.9574 278.463 23.4814C278.463 23.4814 282.531 10.7829 282.602 10.5557C282.753 10.0738 282.657 9.83094 282.244 9.57042C269.17 1.21442 249.624 0 240.749 0C239.475 0 238.423 0.0235051 237.639 0.0568038H237.637Z" fill="url(#paint0_linear_184_21389)"/>
<path d="M245.938 14.3929C244.465 13.6819 243.462 13.3117 243.703 12.5967C243.988 11.7505 245.47 11.4313 246.813 11.4626C247.493 11.4802 247.974 11.5664 248.525 11.6918L249.012 10.162C248.313 10.0327 247.813 9.96808 246.976 9.94653C244.284 9.88385 241.85 10.6262 241.227 12.1932C240.483 14.0521 242.586 15.098 244.406 15.9599C245.855 16.6435 246.998 17.2938 246.597 18.1478C246.283 18.8079 245.26 19.1213 243.772 19.086C242.484 19.0567 240.876 18.6864 239.607 18.0499L238.855 19.6776C239.786 20.1085 241.708 20.6942 243.348 20.7353C246.426 20.8019 248.421 20.0321 249.218 18.3574C250.163 16.381 247.82 15.2978 245.938 14.3909V14.3929Z" fill="white"/>
<path d="M250.117 17.1842C250.132 17.2214 250.158 17.2331 250.199 17.2331C250.24 17.2331 250.26 17.2214 250.272 17.1842C250.289 17.1313 251.772 12.5478 251.772 12.5478C253.284 14.7044 254.784 17.5426 255.587 20.5454H258.053L259.272 16.7434C259.284 16.7062 259.313 16.6964 259.351 16.6964C259.388 16.6964 259.421 16.7082 259.425 16.7434C259.798 19.1292 262.176 20.7334 265.543 20.7334C267.725 20.7334 269.692 20.1634 270.181 19.9009L271.457 15.8894H276.364L276.86 14.3342H271.956L272.802 11.7016H278.649L279.156 10.0896H270.947L268.16 18.7805C267.568 18.9294 266.837 19.0019 266.075 19.0019C264.43 19.0019 263.112 18.614 262.366 17.7444C261.807 17.0901 261.585 16.2498 261.722 15.3077C262.052 13.0688 264.239 11.6566 267.165 11.6566C267.78 11.6566 268.414 11.6918 268.981 11.7663L269.558 10.0759C268.854 9.97011 268.001 9.9231 267.165 9.9231C264.571 9.9231 262.317 10.8143 260.857 12.3813C260.811 12.4303 260.762 12.4283 260.735 12.4283C260.69 12.4283 260.66 12.4205 260.672 12.3813L261.404 10.0915H259.262L256.92 17.4192C256.176 15.2587 254.642 12.4107 252.767 10.0915H250.47L248.752 15.4272C249.616 16.0618 249.889 16.528 250.115 17.1861L250.117 17.1842Z" fill="white"/>
<path d="M236.795 27.8083H237.824L238.837 30.486H238.849L239.878 27.8083H240.844L239.155 31.8943H238.432L236.795 27.8083Z" fill="#642974"/>
<path d="M241.771 29.8515C241.771 29.5244 241.826 29.2286 241.936 28.9622C242.046 28.6958 242.2 28.4706 242.396 28.2845C242.592 28.0984 242.826 27.9554 243.095 27.8536C243.364 27.7537 243.66 27.7028 243.98 27.7028C244.3 27.7028 244.595 27.7537 244.866 27.8536C245.135 27.9535 245.368 28.0965 245.565 28.2845C245.761 28.4706 245.914 28.6978 246.024 28.9622C246.134 29.2286 246.189 29.5244 246.189 29.8515C246.189 30.1786 246.134 30.4744 246.024 30.7408C245.914 31.0072 245.761 31.2324 245.565 31.4185C245.368 31.6046 245.135 31.7476 244.866 31.8494C244.595 31.9493 244.3 32.0002 243.98 32.0002C243.66 32.0002 243.366 31.9493 243.095 31.8494C242.824 31.7495 242.592 31.6065 242.396 31.4185C242.2 31.2324 242.046 31.0052 241.936 30.7408C241.826 30.4763 241.771 30.1786 241.771 29.8515ZM242.708 29.8515C242.708 30.0435 242.737 30.2197 242.798 30.3804C242.857 30.541 242.944 30.6781 243.056 30.7956C243.167 30.9131 243.301 31.0052 243.458 31.0698C243.615 31.1345 243.788 31.1678 243.982 31.1678C244.177 31.1678 244.349 31.1345 244.507 31.0698C244.664 31.0052 244.797 30.9131 244.909 30.7956C245.021 30.6781 245.107 30.539 245.166 30.3804C245.225 30.2217 245.257 30.0454 245.257 29.8515C245.257 29.6576 245.227 29.4872 245.166 29.3266C245.107 29.164 245.021 29.0249 244.909 28.9074C244.797 28.7899 244.664 28.6978 244.507 28.6332C244.349 28.5685 244.177 28.5352 243.982 28.5352C243.788 28.5352 243.615 28.5685 243.458 28.6332C243.301 28.6978 243.167 28.7899 243.056 28.9074C242.944 29.0249 242.857 29.164 242.798 29.3266C242.739 29.4891 242.708 29.6635 242.708 29.8515Z" fill="#642974"/>
<path d="M248.418 30.1528L246.879 27.8102H248.002L248.87 29.34L249.789 27.8102H250.859L249.319 30.1528V31.8961H248.416V30.1528H248.418Z" fill="#642974"/>
<path d="M252.923 27.8083H253.669L255.45 31.8943H254.431L254.078 31.0285H252.487L252.146 31.8943H251.15L252.921 27.8083H252.923ZM253.271 28.9973L252.774 30.2666H253.775L253.273 28.9973H253.271Z" fill="#642974"/>
<path d="M260.292 31.6064C260.027 31.7455 259.748 31.8454 259.46 31.9061C259.171 31.9668 258.874 31.9982 258.574 31.9982C258.254 31.9982 257.96 31.9472 257.689 31.8473C257.418 31.7474 257.186 31.6045 256.99 31.4164C256.793 31.2303 256.64 31.0031 256.53 30.7387C256.42 30.4743 256.365 30.1765 256.365 29.8494C256.365 29.5223 256.42 29.2265 256.53 28.9602C256.64 28.6938 256.793 28.4685 256.99 28.2824C257.186 28.0964 257.42 27.9534 257.689 27.8515C257.958 27.7516 258.254 27.7007 258.574 27.7007C258.894 27.7007 259.204 27.7399 259.479 27.8182C259.754 27.8966 259.998 28.0317 260.206 28.2256L259.57 28.919C259.446 28.7917 259.306 28.6957 259.153 28.6311C258.998 28.5664 258.806 28.5331 258.574 28.5331C258.382 28.5331 258.207 28.5664 258.05 28.6311C257.893 28.6957 257.759 28.7878 257.647 28.9053C257.535 29.0228 257.449 29.1619 257.39 29.3245C257.331 29.4871 257.3 29.6614 257.3 29.8494C257.3 30.0375 257.329 30.2177 257.39 30.3783C257.449 30.5389 257.535 30.676 257.647 30.7935C257.759 30.9111 257.893 31.0031 258.05 31.0678C258.207 31.1324 258.38 31.1657 258.574 31.1657C258.768 31.1657 258.941 31.1442 259.083 31.0991C259.226 31.0541 259.34 31.009 259.424 30.964V30.2999H258.69V29.4694H260.292V31.6045V31.6064Z" fill="#642974"/>
<path d="M261.955 27.8086H264.737V28.6391H262.856V29.4011H264.633V30.2316H262.856V31.0621H264.841V31.8926H261.955V27.8066V27.8086Z" fill="#642974"/>
<path d="M269.743 30.3195C269.743 30.5623 269.705 30.7856 269.633 30.9893C269.56 31.1931 269.45 31.3693 269.307 31.5202C269.164 31.671 268.983 31.7885 268.765 31.8727C268.549 31.957 268.3 32.0001 268.019 32.0001C267.738 32.0001 267.483 31.957 267.267 31.8727C267.051 31.7885 266.87 31.671 266.727 31.5202C266.584 31.3693 266.474 31.1931 266.401 30.9893C266.328 30.7856 266.291 30.5623 266.291 30.3195V27.8083H267.194V30.2842C267.194 30.4115 267.214 30.529 267.255 30.6368C267.296 30.7445 267.353 30.8385 267.426 30.9169C267.499 30.9952 267.587 31.0579 267.689 31.101C267.791 31.146 267.901 31.1676 268.021 31.1676C268.141 31.1676 268.251 31.146 268.351 31.101C268.451 31.0559 268.537 30.9952 268.612 30.9169C268.684 30.8385 268.741 30.7445 268.783 30.6368C268.824 30.529 268.843 30.4115 268.843 30.2842V27.8083H269.747V30.3195H269.743Z" fill="#642974"/>
<path d="M271.297 27.8083H272.881C273.09 27.8083 273.288 27.8279 273.474 27.8691C273.661 27.9102 273.826 27.9768 273.965 28.0708C274.107 28.1648 274.218 28.2922 274.301 28.4508C274.383 28.6095 274.425 28.8093 274.425 29.0482C274.425 29.3362 274.35 29.583 274.199 29.7847C274.048 29.9865 273.83 30.1138 273.539 30.1686L274.58 31.8943H273.498L272.642 30.2607H272.196V31.8943H271.293V27.8083H271.297ZM272.2 29.4987H272.732C272.813 29.4987 272.899 29.4968 272.989 29.4909C273.08 29.485 273.162 29.4674 273.235 29.438C273.307 29.4086 273.368 29.3636 273.417 29.3029C273.465 29.2421 273.49 29.154 273.49 29.0424C273.49 28.9385 273.468 28.8563 273.427 28.7936C273.386 28.7309 273.331 28.6859 273.266 28.6526C273.201 28.6193 273.125 28.5977 273.04 28.586C272.956 28.5742 272.874 28.5683 272.791 28.5683H272.2V29.4968V29.4987Z" fill="#642974"/>
<path d="M277.797 28.8075C277.725 28.7154 277.625 28.6469 277.499 28.6018C277.373 28.5568 277.255 28.5352 277.144 28.5352C277.079 28.5352 277.01 28.5431 276.941 28.5587C276.873 28.5744 276.806 28.5979 276.745 28.6312C276.684 28.6645 276.633 28.7076 276.594 28.7605C276.555 28.8153 276.537 28.88 276.537 28.9564C276.537 29.0798 276.584 29.1738 276.676 29.2384C276.769 29.3031 276.886 29.3599 277.026 29.4049C277.165 29.45 277.318 29.497 277.479 29.544C277.642 29.591 277.793 29.6556 277.933 29.7399C278.072 29.8241 278.19 29.9377 278.282 30.0807C278.375 30.2237 278.422 30.4137 278.422 30.6526C278.422 30.8916 278.379 31.0777 278.294 31.2461C278.21 31.4146 278.094 31.5556 277.951 31.6673C277.805 31.7789 277.638 31.8612 277.448 31.916C277.257 31.9689 277.055 31.9963 276.843 31.9963C276.578 31.9963 276.331 31.9552 276.103 31.8749C275.875 31.7946 275.663 31.6633 275.467 31.4831L276.109 30.7799C276.201 30.9033 276.319 30.9974 276.458 31.0659C276.598 31.1345 276.745 31.1678 276.894 31.1678C276.967 31.1678 277.041 31.1599 277.116 31.1423C277.191 31.1247 277.259 31.0992 277.318 31.064C277.377 31.0287 277.426 30.9856 277.464 30.9308C277.501 30.8759 277.519 30.8132 277.519 30.7408C277.519 30.6174 277.471 30.5214 277.377 30.4489C277.283 30.3784 277.163 30.3177 277.022 30.2668C276.879 30.2158 276.725 30.1669 276.558 30.1159C276.394 30.067 276.238 29.9984 276.095 29.9142C275.952 29.83 275.834 29.7183 275.74 29.5792C275.645 29.4402 275.598 29.258 275.598 29.0308C275.598 28.8036 275.642 28.6195 275.728 28.453C275.814 28.2865 275.93 28.1494 276.075 28.0377C276.221 27.9261 276.388 27.8418 276.576 27.787C276.765 27.7321 276.959 27.7028 277.161 27.7028C277.393 27.7028 277.617 27.7361 277.833 27.8007C278.049 27.8653 278.243 27.975 278.418 28.1298L277.799 28.8055L277.797 28.8075Z" fill="#642974"/>
<path d="M229.71 3.96362H229.708C229.522 3.96362 229.371 4.12068 229.371 4.31442V27.3488C229.371 27.5425 229.522 27.6996 229.708 27.6996H229.71C229.896 27.6996 230.046 27.5425 230.046 27.3488V4.31442C230.046 4.12068 229.896 3.96362 229.71 3.96362Z" fill="#1D1E1B"/>
<path d="M190.434 32H222.627V0H190.434V32Z" fill="#1D1E1B"/>
<path d="M198.067 5.98298C198.067 5.98298 199.498 6.23597 200.654 4.82058C201.803 3.41204 201.177 2.27699 201.177 2.27699C201.177 2.27699 199.945 2.16759 198.81 3.48725C197.675 4.80691 198.067 5.98298 198.067 5.98298Z" fill="white"/>
<path d="M196.614 7.33674C196.614 7.33674 196.821 8.7658 195.362 9.86666C193.904 10.9607 192.79 10.2974 192.79 10.2974C192.79 10.2974 192.721 9.0735 194.083 7.98632C195.445 6.90597 196.614 7.33674 196.614 7.33674Z" fill="white"/>
<path d="M196.333 5.89395C196.333 5.89395 196.629 4.60848 195.315 3.33668C194.001 2.06489 192.804 2.31104 192.804 2.31104C192.804 2.31104 192.502 3.64437 193.788 4.94352C195.074 6.2495 196.333 5.89395 196.333 5.89395Z" fill="white"/>
<path d="M217.354 12.6701C218.977 13.1282 220.463 13.9009 220.463 13.9009C220.463 13.9009 219.232 15.4872 217.34 16.2941C215.448 17.1077 214.836 16.6223 214.836 16.6223C214.836 16.6223 215.813 17.1282 216.611 18.571C217.416 20.0069 217.34 20.9573 217.34 20.9573C213.33 19.9385 209.512 18.2291 206.114 15.8496C202.832 13.5522 200.033 10.6394 197.783 7.33679C200.996 9.69577 204.504 10.5368 208.177 10.7693C214.024 11.1385 217.037 8.00004 217.037 8.00004C217.037 8.00004 217.285 8.65645 216.618 10.3864C215.944 12.1231 215.056 12.6086 215.056 12.6086C215.056 12.6086 215.737 12.212 217.354 12.6701Z" fill="white"/>
<path d="M193.638 20.4648C193.473 20.4648 193.287 20.4853 193.191 20.499C193.136 20.5058 193.115 20.5058 193.115 20.5605C193.115 20.6289 193.129 20.711 193.129 20.8682V21.3811C193.129 21.5041 193.15 21.5588 193.28 21.593C193.356 21.6135 193.473 21.6204 193.611 21.6204C193.968 21.6204 194.202 21.4289 194.202 21.0597C194.202 20.6973 194.01 20.4648 193.638 20.4648ZM195.021 23.0221C195.021 23.0221 195.021 23.152 195.021 23.1862C195.021 23.2135 195.014 23.2135 194.986 23.234C194.924 23.2751 194.773 23.3093 194.711 23.3093C194.47 23.3093 194.298 23.193 194.161 22.9332L193.727 22.1195C193.679 22.0306 193.631 21.9964 193.542 21.9896C193.335 21.9691 193.246 21.9622 193.205 21.9622C193.143 21.9622 193.129 22.0033 193.129 22.058V23.2067C193.129 23.2409 193.129 23.2614 193.095 23.2614C193.067 23.2614 192.909 23.2546 192.888 23.2477C192.861 23.2546 192.703 23.2614 192.668 23.2614C192.641 23.2614 192.641 23.2546 192.641 23.2409C192.641 23.2204 192.668 23.1793 192.668 23.1452V20.2323C192.668 20.1776 192.682 20.1571 192.716 20.1503C192.936 20.1161 193.404 20.0887 193.741 20.0887C194.292 20.0887 194.697 20.3691 194.697 21.0187C194.697 21.4016 194.491 21.7161 194.216 21.8323C194.175 21.8528 194.154 21.8665 194.154 21.8939C194.154 21.9144 194.161 21.9417 194.182 21.9691C194.292 22.1742 194.477 22.4819 194.58 22.6665C194.677 22.817 194.752 22.8511 194.835 22.8511C194.924 22.8511 194.973 22.8101 195.007 22.8101C195.028 22.8101 195.034 22.8306 195.034 22.8511C195.034 22.8717 195.021 23.0221 195.021 23.0221Z" fill="white"/>
<path d="M197.544 20.1574L197.317 20.595C197.207 20.8001 197.234 20.8069 197.165 20.8069H196.931C196.897 20.8069 196.89 20.8001 196.89 20.7796C196.89 20.7591 196.924 20.7454 196.952 20.6428L197.076 20.171C197.103 20.089 197.097 20.0616 197.124 20.0616C197.152 20.0616 197.186 20.0685 197.22 20.0685H197.496C197.53 20.0685 197.565 20.0685 197.565 20.1027C197.565 20.1163 197.558 20.1369 197.544 20.1574ZM197.035 21.2651C196.732 21.2651 196.518 21.5112 196.518 21.7916C196.518 21.8463 196.532 21.8668 196.573 21.8668C196.608 21.8668 196.663 21.8257 196.704 21.8257H197.386C197.454 21.8257 197.496 21.8052 197.496 21.6685C197.496 21.4155 197.282 21.2651 197.035 21.2651ZM197.881 22.0035C197.854 22.0924 197.819 22.1129 197.737 22.1129H196.663C196.546 22.1129 196.498 22.1266 196.498 22.2155C196.498 22.6189 196.759 22.9061 197.152 22.9061C197.399 22.9061 197.689 22.7899 197.806 22.6531C197.826 22.6326 197.847 22.6189 197.868 22.6189C197.888 22.6189 197.895 22.6326 197.895 22.6668C197.895 22.7146 197.881 22.8582 197.881 22.8582C197.881 22.8582 197.881 22.995 197.881 23.036C197.881 23.0634 197.881 23.077 197.854 23.1044C197.689 23.2343 197.358 23.3095 197.09 23.3095C196.374 23.3095 196.016 22.8651 196.016 22.1266C196.016 21.436 196.387 20.9574 197.062 20.9574C197.551 20.9574 197.923 21.2035 197.923 21.7232C197.923 21.7984 197.902 21.9215 197.881 22.0035Z" fill="white"/>
<path d="M199.871 21.2581C199.644 21.2581 199.499 21.4222 199.499 21.6889C199.499 21.9214 199.609 22.1265 199.864 22.1265C200.119 22.1265 200.243 21.935 200.243 21.6889C200.243 21.3675 200.098 21.2581 199.871 21.2581ZM200.573 21.2308C200.573 21.3265 200.649 21.5043 200.649 21.6752C200.649 22.1402 200.332 22.4068 199.926 22.4068C199.843 22.4068 199.816 22.4684 199.816 22.5915C199.816 22.8513 200.415 23.0427 200.415 23.5214C200.415 23.8906 200.119 24.1094 199.699 24.1094C199.609 24.1094 199.54 24.1094 199.478 24.0889C199.444 24.0821 199.437 24.0752 199.43 24.041C199.43 24 199.41 23.8906 199.41 23.8906C199.41 23.8906 199.375 23.7333 199.375 23.7197C199.375 23.6923 199.382 23.6855 199.403 23.6855C199.43 23.6855 199.568 23.7333 199.671 23.7333C199.836 23.7333 199.947 23.6718 199.947 23.5214C199.947 23.2 199.368 23.0701 199.368 22.6188C199.368 22.5162 199.437 22.4547 199.437 22.4137V22.3863C199.437 22.3385 199.43 22.3248 199.354 22.2701C199.169 22.1402 199.086 21.9282 199.086 21.7026C199.086 21.265 199.375 20.9778 199.857 20.9778C200.015 20.9778 200.539 21.0051 200.628 21.0051C200.649 21.0051 200.663 21.0256 200.663 21.0393C200.663 21.0872 200.573 21.1214 200.573 21.2308Z" fill="white"/>
<path d="M202.278 20.5949H201.988C201.947 20.5949 201.933 20.5608 201.933 20.5197C201.933 20.4855 201.947 20.4377 201.947 20.3898C201.947 20.3488 201.933 20.3078 201.933 20.2736C201.933 20.2325 201.947 20.212 201.988 20.212H202.271C202.305 20.212 202.319 20.2325 202.319 20.2736C202.319 20.3146 202.305 20.3556 202.305 20.3898C202.305 20.4377 202.319 20.4924 202.319 20.5334C202.319 20.5676 202.312 20.5949 202.278 20.5949ZM202.361 23.2616C202.312 23.2616 202.147 23.2479 202.147 23.2479C202.147 23.2479 202.002 23.2616 201.954 23.2616C201.919 23.2616 201.905 23.2479 201.905 23.2137C201.905 23.1864 201.912 23.1454 201.912 23.0975V21.3813C201.912 21.265 201.898 21.142 201.898 21.0804C201.898 21.012 201.912 21.0052 201.961 21.0052C201.988 21.0052 202.14 21.0189 202.14 21.0189C202.14 21.0189 202.278 21.0052 202.319 21.0052C202.361 21.0052 202.367 21.012 202.367 21.0531C202.367 21.0873 202.361 21.142 202.361 21.1967V22.8787C202.361 23.0702 202.388 23.1727 202.388 23.2206C202.388 23.2479 202.381 23.2616 202.361 23.2616Z" fill="white"/>
<path d="M204.605 21.3128C204.24 21.3128 204.041 21.6342 204.041 22.1265C204.041 22.6598 204.254 22.947 204.605 22.947C204.949 22.947 205.183 22.694 205.183 22.1675C205.183 21.5863 204.97 21.3128 204.605 21.3128ZM204.619 23.3094C203.875 23.3094 203.559 22.8513 203.559 22.1128C203.559 21.7231 203.744 21.3744 203.93 21.2103C204.171 21.2103 204.247 20.9573 204.674 20.9573C205.28 20.9573 205.658 21.347 205.658 22.1675C205.658 22.9333 205.232 23.3094 204.619 23.3094Z" fill="white"/>
<path d="M208.778 23.2615C208.744 23.2615 208.599 23.2479 208.599 23.2479C208.599 23.2479 208.455 23.2615 208.427 23.2615C208.379 23.2615 208.372 23.2547 208.372 23.2C208.372 23.1658 208.379 23.1043 208.379 23.0633V22.1265C208.379 21.6 208.234 21.3402 207.863 21.3402C207.436 21.3402 207.319 21.6684 207.319 22.1265V23.0769C207.319 23.1111 207.319 23.1863 207.319 23.2137C207.319 23.2479 207.312 23.2615 207.264 23.2615C207.229 23.2615 207.085 23.2479 207.085 23.2479C207.085 23.2479 206.975 23.2615 206.933 23.2615C206.885 23.2615 206.864 23.2615 206.864 23.2137C206.864 23.1795 206.871 23.1316 206.871 23.0906V22.0376C206.871 21.7641 206.933 21.641 206.981 21.5521C206.995 21.518 207.009 21.4906 207.009 21.4701C207.009 21.4359 206.981 21.3949 206.933 21.3539L206.741 21.1829C206.713 21.1624 206.699 21.1351 206.699 21.1145C206.699 21.094 206.713 21.0804 206.727 21.0735L206.885 20.971C206.906 20.9573 206.913 20.9573 206.933 20.9573C206.954 20.9573 206.975 20.971 206.988 20.9778L207.202 21.1351C207.236 21.1556 207.264 21.1624 207.284 21.1624C207.319 21.1624 207.353 21.1351 207.395 21.1145C207.574 20.9983 207.739 20.9573 207.98 20.9573C208.427 20.9573 208.82 21.2581 208.82 22.0376V22.9744C208.82 23.0769 208.833 23.1453 208.833 23.2C208.833 23.2479 208.82 23.2615 208.778 23.2615Z" fill="white"/>
<path d="M191.961 27.8975H191.472C191.424 27.8975 191.417 27.8359 191.383 27.8359C191.362 27.8359 191.355 27.8701 191.355 28.0069V28.6018C191.355 29.0941 191.569 29.4428 192.091 29.4428C192.545 29.4428 192.807 29.1419 192.807 28.6496C192.807 28.0616 192.422 27.8975 191.961 27.8975ZM192.002 25.9761C191.754 25.9761 191.514 25.9966 191.438 26.0103C191.369 26.024 191.355 26.0445 191.355 26.1607V27.1043C191.355 27.1795 191.362 27.2137 191.459 27.2137H191.974C192.339 27.2137 192.614 27.0565 192.614 26.571C192.614 26.1676 192.339 25.9761 192.002 25.9761ZM192.188 30.1471C191.644 30.1471 191.225 30.0035 190.95 29.6616C190.874 29.5659 190.867 29.5522 190.757 29.5522H190.502C190.447 29.5522 190.434 29.5317 190.434 29.4428V25.3812C190.44 25.3676 190.44 25.3676 190.454 25.3676C190.475 25.3676 190.53 25.3881 190.551 25.3881C190.654 25.3881 191.493 25.3129 192.126 25.3129C193.054 25.3129 193.57 25.7163 193.57 26.4821C193.57 26.8582 193.385 27.2137 193.11 27.3778C193.041 27.412 193.013 27.4394 193.013 27.4872C193.013 27.5282 193.048 27.5556 193.11 27.5761C193.557 27.7129 193.839 28.1573 193.839 28.6975C193.839 29.6411 193.185 30.1471 192.188 30.1471Z" fill="white"/>
<path d="M195.989 26.0308C195.79 26.0308 195.583 26.0513 195.46 26.0718C195.398 26.0787 195.363 26.0855 195.363 26.1812C195.363 26.2838 195.391 26.4274 195.391 26.6257V27.2411C195.391 27.4052 195.412 27.4735 195.57 27.5146C195.666 27.5419 195.797 27.5556 195.955 27.5556C196.402 27.5556 196.712 27.2958 196.712 26.7966C196.712 26.3248 196.471 26.0308 195.989 26.0308ZM198.136 29.6411C198.136 29.6411 198.156 29.8735 198.156 29.9146C198.156 29.9693 198.129 29.9966 198.081 30.0171C197.888 30.0924 197.771 30.1471 197.558 30.1471C197.117 30.1471 196.835 29.9556 196.602 29.4975L196.031 28.3693C195.976 28.2599 195.927 28.2257 195.81 28.2188C195.46 28.1915 195.535 28.1983 195.494 28.1983C195.405 28.1983 195.391 28.2462 195.391 28.3351V29.9761C195.391 30.0445 195.384 30.0787 195.315 30.0787C195.253 30.0787 194.909 30.0513 194.896 30.0513C194.875 30.0513 194.531 30.0787 194.462 30.0787C194.421 30.0787 194.414 30.065 194.414 30.0445C194.414 29.9966 194.455 29.9214 194.455 29.8735V25.5522C194.455 25.4633 194.49 25.4359 194.538 25.4291C194.93 25.3607 195.645 25.3129 196.216 25.3129C197.09 25.3129 197.702 25.73 197.702 26.7146C197.702 27.2753 197.4 27.7539 196.987 27.9522C196.918 27.9795 196.904 28.0069 196.904 28.0342C196.904 28.0547 196.918 28.0821 196.939 28.1231C197.069 28.3898 197.269 28.7248 197.4 28.971C197.544 29.2103 197.688 29.2924 197.819 29.2924C197.984 29.2924 198.053 29.2171 198.115 29.2171C198.156 29.2171 198.163 29.2377 198.163 29.2787C198.163 29.3265 198.136 29.6411 198.136 29.6411Z" fill="white"/>
<path d="M202.153 29.7025C202.098 29.7025 201.899 29.6888 201.885 29.6888C201.809 29.6888 201.782 29.7025 201.699 29.764C201.314 30.0512 200.798 30.1469 200.316 30.1469C199.243 30.1469 198.604 29.5931 198.604 28.6222C198.604 27.911 199.009 27.6102 199.009 27.3777C199.009 27.1931 198.879 26.9675 198.879 26.6461C198.879 25.7435 199.628 25.2854 200.495 25.2854C200.935 25.2854 201.383 25.3401 201.692 25.511C201.761 25.5521 201.768 25.5657 201.768 25.6273C201.768 25.6751 201.685 25.9692 201.685 25.9692C201.685 25.9692 201.678 26.3863 201.63 26.3863C201.63 26.3863 201.561 26.3726 201.52 26.3316C201.341 26.188 200.997 26.0854 200.66 26.0854C200.165 26.0854 199.828 26.2769 199.828 26.7213C199.828 27.0222 199.938 27.1521 200.234 27.1521H201.314C201.41 27.1521 201.417 27.1657 201.417 27.2546C201.417 27.3025 201.403 27.5555 201.403 27.5555C201.403 27.5555 201.417 27.829 201.417 27.8974C201.417 27.9794 201.389 27.9794 201.314 27.9794H200.041C199.752 27.9794 199.628 28.1914 199.628 28.4581C199.628 28.9709 199.911 29.3128 200.557 29.3128C201.149 29.3128 201.445 28.9435 201.445 28.6222C201.445 28.5606 201.451 28.5401 201.506 28.5401C201.555 28.5401 201.782 28.5469 201.782 28.5469C201.782 28.5469 202.098 28.5333 202.146 28.5333C202.201 28.5333 202.222 28.5401 202.222 28.6153C202.222 28.7179 202.201 29.0803 202.201 29.0803C202.201 29.0803 202.222 29.5179 202.222 29.6273C202.222 29.6751 202.201 29.7025 202.153 29.7025Z" fill="white"/>
<path d="M205.941 26.1743C205.865 26.1743 205.727 26.1606 205.514 26.1606H204.923C204.744 26.1606 204.716 26.2222 204.716 26.3384V28.9572C204.716 29.2375 204.806 29.2991 204.923 29.2991C205.026 29.2991 205.129 29.2034 205.198 29.2034C205.232 29.2034 205.246 29.2102 205.246 29.2717V29.5794C205.246 29.5794 205.294 29.8529 205.294 29.8939C205.294 29.9486 205.273 29.9623 205.218 29.9965C205.06 30.0922 204.716 30.1469 204.565 30.1469C204.021 30.1469 203.753 29.8666 203.753 29.2854V26.5709C203.753 26.4751 203.829 26.2974 203.829 26.229C203.829 26.188 203.788 26.1538 203.698 26.1538C203.629 26.1538 203.189 26.1606 203.175 26.1606C203.072 26.1606 202.611 26.188 202.556 26.188C202.487 26.188 202.474 26.1606 202.474 26.1128C202.474 26.0581 202.487 25.7435 202.487 25.7435C202.487 25.7435 202.467 25.511 202.467 25.4563C202.467 25.3743 202.487 25.3606 202.577 25.3606H205.562C205.858 25.3606 205.906 25.2786 205.982 25.2786C205.996 25.2786 206.023 25.2854 206.023 25.3196C206.023 25.3948 206.009 25.6751 206.009 25.6751C206.009 25.6751 206.03 26.0375 206.03 26.0922C206.03 26.1606 206.009 26.1743 205.941 26.1743Z" fill="white"/>
<path d="M208.648 27.7881L208.338 26.7761C208.194 26.2975 208.139 26.2633 208.063 26.2633C207.994 26.2633 208.063 26.3795 207.946 26.7761L207.657 27.8017C207.651 27.8223 207.644 27.8428 207.644 27.8564C207.644 27.9043 207.678 27.9248 207.754 27.9248H208.565C208.641 27.9248 208.662 27.9111 208.662 27.877C208.662 27.8564 208.662 27.8291 208.648 27.7881ZM210.409 30.024C210.278 30.0923 210.038 30.147 209.859 30.147C209.501 30.147 209.233 29.9898 209.102 29.5522L208.896 28.8752C208.875 28.8 208.875 28.5812 208.717 28.5812C208.655 28.5812 208.476 28.677 208.38 28.677L207.664 28.6838C207.506 28.6838 207.458 28.6975 207.41 28.8616L207.155 29.7299C207.08 29.9966 207.114 30.1197 206.997 30.1197C206.928 30.1197 206.612 30.0718 206.612 30.0718H206.137C206.075 30.0718 206.068 30.0513 206.068 30.0035C206.068 29.9419 206.13 29.8188 206.185 29.6479L207.334 25.9351C207.485 25.4496 207.403 25.3607 207.706 25.3607C207.767 25.3607 208.118 25.3812 208.118 25.3812C208.118 25.3812 208.531 25.3607 208.565 25.3607C208.772 25.3607 208.792 25.3676 208.944 25.8462L209.9 28.8547C209.996 29.1556 210.086 29.2582 210.223 29.2582C210.306 29.2582 210.381 29.2103 210.416 29.2103C210.45 29.2103 210.464 29.2308 210.464 29.2855C210.464 29.3539 210.443 29.5727 210.443 29.5727C210.443 29.5727 210.478 29.853 210.478 29.9146C210.478 29.9829 210.471 29.9898 210.409 30.024Z" fill="white"/>
<path d="M214.405 28.0751V29.1555C214.405 29.1555 214.418 29.5179 214.418 29.6751C214.418 29.764 214.391 29.764 214.35 29.764C214.281 29.764 213.964 29.7435 213.882 29.7435C213.792 29.7435 213.73 29.764 213.689 29.7982C213.428 30.017 213.008 30.1469 212.54 30.1469C211.419 30.1469 210.766 29.4905 210.766 27.7401C210.766 26.0512 211.577 25.2854 212.609 25.2854C213.029 25.2854 213.469 25.3948 213.717 25.6136C213.758 25.6546 213.806 25.6751 213.861 25.6751C213.951 25.6751 214.164 25.6683 214.219 25.6683C214.239 25.6683 214.26 25.7025 214.26 25.7298C214.26 25.7914 214.253 26.2632 214.253 26.2632C214.253 26.2632 214.274 26.776 214.274 26.8307C214.274 26.8991 214.26 26.9128 214.198 26.9128C214.15 26.9128 213.889 26.8991 213.889 26.8991L213.586 26.9401C213.538 26.9401 213.517 26.9264 213.517 26.8786C213.517 26.3521 213.153 26.0922 212.767 26.0922C211.969 26.0922 211.818 26.9264 211.818 27.6991C211.818 29.1486 212.286 29.3264 212.754 29.3264C213.276 29.3264 213.524 29.0871 213.524 28.7521V28.6016C213.524 28.4854 213.483 28.4239 213.373 28.4239H213.029C212.96 28.4239 212.898 28.4512 212.864 28.4512C212.864 28.4512 212.822 28.4307 212.822 28.4102C212.822 28.3281 212.843 28.0683 212.843 28.0683C212.843 28.0683 212.836 27.8495 212.836 27.7811C212.836 27.7469 212.85 27.7196 212.939 27.7196H214.377C214.46 27.7196 214.487 27.7469 214.487 27.7811C214.487 27.829 214.405 27.9589 214.405 28.0751Z" fill="white"/>
<path d="M219.427 29.9964C219.296 30.0716 219.042 30.1468 218.842 30.1468C218.313 30.1468 218.003 29.8596 218.003 29.1622V27.6169C218.003 26.6255 217.824 26.1263 217.116 26.1263C216.421 26.1263 216.249 26.7554 216.249 27.6101V29.7024C216.249 29.7639 216.256 29.9075 216.256 29.9554C216.256 30.0579 216.242 30.0785 216.166 30.0785C216.132 30.0785 215.774 30.0511 215.774 30.0511C215.774 30.0511 215.403 30.0785 215.341 30.0785C215.293 30.0785 215.272 30.0443 215.272 29.9759C215.272 29.9007 215.279 29.7981 215.279 29.7161V27.4802C215.279 27.0973 215.341 26.7417 215.472 26.4887C215.499 26.4408 215.547 26.3246 215.547 26.2631C215.547 26.1879 215.506 26.1263 215.417 26.0443L215.121 25.7776C215.1 25.7639 215.031 25.6819 215.025 25.6682C215.011 25.6408 215.004 25.6135 215.004 25.593C215.004 25.5656 215.011 25.5451 215.045 25.5246L215.327 25.3468C215.341 25.34 215.472 25.2579 215.485 25.2511C215.513 25.2374 215.534 25.2374 215.561 25.2374C215.602 25.2374 215.637 25.2511 215.678 25.2785L216.001 25.5246C216.056 25.5656 216.118 25.593 216.173 25.593C216.242 25.593 216.373 25.5451 216.428 25.5178C216.689 25.3879 216.944 25.2853 217.253 25.2853C218.265 25.2853 218.973 25.8118 218.973 27.446V28.9844C218.973 29.2032 219.042 29.299 219.159 29.299C219.296 29.299 219.372 29.2032 219.434 29.2032C219.475 29.2032 219.489 29.2169 219.489 29.2785C219.489 29.34 219.468 29.5998 219.468 29.5998C219.468 29.5998 219.496 29.8255 219.496 29.8938C219.496 29.9485 219.482 29.9622 219.427 29.9964Z" fill="white"/>
<path d="M221.84 29.3128C221.194 29.3128 220.912 28.9709 220.912 28.4581C220.912 28.1914 221.036 27.9794 221.324 27.9794H222.597C222.611 27.9794 222.618 27.9794 222.625 27.9794V27.1589C222.618 27.1521 222.611 27.1521 222.597 27.1521H221.517C221.221 27.1521 221.111 27.0222 221.111 26.7213C221.111 26.2769 221.448 26.0786 221.944 26.0786C222.191 26.0786 222.439 26.1401 222.625 26.229V25.3811C222.37 25.3127 222.074 25.2854 221.778 25.2854C220.912 25.2854 220.162 25.7367 220.162 26.6461C220.162 26.9675 220.286 27.1931 220.286 27.3777C220.286 27.6102 219.887 27.911 219.887 28.6222C219.887 29.5931 220.526 30.1469 221.6 30.1469C221.944 30.1469 222.308 30.0922 222.625 29.9623V28.9367C222.501 29.1418 222.239 29.3128 221.84 29.3128Z" fill="white"/>
<path d="M163.299 18.1675V25.9555C163.299 29.8051 161.317 31.535 157.562 31.535C154.088 31.535 152.623 30.0922 152.623 27.829C152.623 26.8375 152.87 26.0444 153.372 25.4495C153.62 25.1623 154.528 24.964 154.528 24.6837C154.528 24.4307 153.393 24.3692 153.035 24.2324C150.057 23.07 148.646 20.0068 148.646 15.2546C148.646 9.10763 151.329 5.77087 156.103 5.77087C158.139 5.77087 159.55 6.22215 160.678 7.32301C160.932 7.54865 161.07 7.61019 161.345 7.61019H162.611C162.776 7.61019 162.858 7.66489 162.858 7.91788C162.858 8.4307 162.776 9.90079 162.776 9.90079C162.776 9.90079 162.858 11.6581 162.858 12.1367C162.858 12.4786 162.721 12.5059 162.556 12.5059C162.501 12.5059 161.345 12.4786 161.345 12.4786C161.345 12.4786 160.32 12.5333 160.045 12.5333C159.852 12.5333 159.797 12.3965 159.797 12.164C159.797 10.188 158.614 9.13498 156.654 9.13498C154.115 9.13498 152.678 10.8375 152.678 15.1931C152.678 19.7811 153.95 21.4563 156.599 21.4563C158.752 21.4563 159.605 20.4649 159.605 19.0769V18.229C159.605 17.8051 159.522 17.2375 159.522 16.9504C159.522 16.8136 159.577 16.6974 159.88 16.6974H163.161C163.498 16.6974 163.601 16.7794 163.601 16.9504C163.601 17.2102 163.299 17.7162 163.299 18.1675ZM159.605 23.8016C159.605 23.241 159.577 22.9811 159.44 22.9811C159.219 22.9811 159.082 23.7469 158.862 23.9452C158.421 24.2871 157.754 24.4581 157.231 24.5401C156.488 24.9914 156.014 25.7845 156.014 27.0016C156.014 28.082 156.516 28.6495 157.782 28.6495C159.082 28.6495 159.605 28.0546 159.605 26.6119" fill="#71A1D6"/>
<path d="M173.679 25.9009C168.437 25.9009 165.844 22.6189 165.844 15.8496C165.844 12.2804 166.559 9.42228 168.293 7.69236C170.693 7.69236 170.914 5.76416 173.844 5.76416C178.563 5.76416 181.624 8.60177 181.624 15.877C181.624 22.9266 178.728 25.9009 173.679 25.9009ZM173.734 9.0804C171.223 9.0804 169.95 10.7488 169.95 15.8496C169.95 20.8069 171.141 22.5915 173.706 22.5915C176.217 22.5915 177.483 20.9163 177.483 15.877C177.483 10.865 176.3 9.0804 173.734 9.0804Z" fill="#71A1D6"/>
<path d="M60.8137 17.0324H59.1903C58.9977 17.0324 58.695 16.8614 58.5575 16.8614C58.5024 16.8614 58.4474 16.9777 58.4474 17.4837V19.6922C58.4474 21.8666 59.1628 22.858 61.3365 22.858C63.2351 22.858 64.2326 22.0375 64.2326 19.9452C64.2326 17.5999 62.8293 17.0324 60.8137 17.0324ZM60.7312 8.95032C59.9057 8.95032 59.1353 9.00502 58.7776 9.05972C58.5024 9.09391 58.4474 9.23066 58.4474 9.62725V13.5862C58.4474 13.9213 58.5024 14.0649 58.8601 14.0649H60.8688C62.5266 14.0649 63.5172 13.3606 63.5172 11.405C63.5172 9.7093 62.6367 8.95032 60.7312 8.95032ZM61.9763 25.9349C59.7681 25.9349 57.8971 25.4016 56.6038 24.0136C56.3287 23.7606 56.2186 23.7332 55.1386 23.7332C54.7328 23.7332 54.6777 23.6512 54.6777 23.2819V6.80331C54.6777 6.35203 54.6984 6.15374 54.8359 6.15374C54.9185 6.15374 55.1386 6.23579 55.2212 6.23579C55.7233 6.23579 58.4749 5.9281 60.8137 5.9281C65.4708 5.9281 67.5069 7.78793 67.5069 10.9879C67.5069 12.6495 66.8741 13.8119 65.6909 14.5435C65.4708 14.6871 64.8379 14.9127 64.8379 15.1657C64.8379 15.4187 65.4708 15.617 65.6909 15.7059C67.4519 16.4102 68.3599 17.9965 68.3599 20.1982C68.3599 23.7332 65.9661 25.9349 61.9763 25.9349Z" fill="#000102"/>
<path d="M76.5952 9.00502C75.8454 9.00502 75.24 9.03237 74.8823 9.08707C74.6071 9.14861 74.5246 9.28536 74.5246 9.62725C74.5246 9.99648 74.6071 10.7281 74.6071 11.3503V14.1196C74.6071 14.8307 74.6622 15.0837 75.3019 15.2204C75.7078 15.3093 76.32 15.364 76.8703 15.364C78.7414 15.364 79.897 14.4341 79.897 12.1161C79.897 9.99647 78.7964 9.00502 76.5952 9.00502ZM85.4827 23.87V25.0597C85.4827 25.258 85.3796 25.3674 85.2145 25.4837C84.7398 25.7366 84.1345 25.9349 83.4259 25.9349C81.4654 25.9349 80.4474 25.1418 79.3192 23.0563L76.9804 18.817C76.7603 18.4204 76.6227 18.3042 76.2306 18.2221C75.8454 18.1332 75.185 18.0512 74.9924 18.0512C74.6897 18.0512 74.6071 18.2221 74.6071 18.6187V25.2854C74.6071 25.5384 74.5796 25.6819 74.3045 25.6819C73.7542 25.6819 72.5159 25.5657 72.5159 25.5657C72.5159 25.5657 71.3603 25.6819 70.7825 25.6819C70.6724 25.6819 70.5898 25.6819 70.5898 25.5384C70.5898 25.3127 70.7549 25.0597 70.7549 24.8341V6.80331C70.7549 6.46143 70.8375 6.34519 71.0576 6.29049C72.4334 6.06485 74.6897 5.9281 76.6777 5.9281C81.2728 5.9281 83.8593 7.98622 83.8593 11.9178C83.8593 14.3452 82.511 16.2119 80.8876 17.005C80.75 17.0597 80.5849 17.2307 80.5849 17.4016C80.5849 17.6546 81.1077 18.4751 82.6761 21.046C83.2815 22.0375 83.6392 22.3999 84.3821 22.3999C84.9118 22.3999 85.1044 22.1743 85.4071 22.1743C85.5171 22.1743 85.5722 22.2631 85.5722 22.3999C85.5722 22.5982 85.4827 23.446 85.4827 23.87Z" fill="#000102"/>
<path d="M101.089 23.4461C101.089 23.6444 101.034 23.7333 100.814 23.7333H99.7684C99.4382 23.7333 99.3007 23.8153 99.0805 23.9862C97.5947 25.3674 95.9988 25.935 93.7906 25.935C89.8284 25.935 86.8223 24.0683 86.8223 19.9179C86.8223 16.6632 88.5833 15.7333 88.5833 14.7691C88.5833 14.0649 87.9229 13.4153 87.9229 11.7469C87.9229 7.84949 90.5988 5.83923 94.6711 5.83923C96.4321 5.83923 98.09 6.09223 99.1356 6.54351C99.3007 6.60505 99.4382 6.71445 99.4382 6.94009C99.4382 7.16573 99.108 8.27342 99.108 8.27342L99.0255 9.82556C99.0255 9.9965 98.943 10.1059 98.8054 10.1059C98.5027 10.1059 97.5672 9.14864 95.0839 9.14864C92.8826 9.14864 91.7545 9.90761 91.7545 11.8563C91.7545 13.1897 92.1947 13.9555 93.3229 13.9555H96.7417C97.0719 13.9555 97.1819 13.9828 97.1819 14.3179C97.1819 14.7692 97.0994 15.6786 97.0994 15.6786C97.0994 15.6786 97.1819 16.5196 97.1819 16.9503C97.1819 17.2854 97.0444 17.2854 96.7692 17.2854H92.635C91.4518 17.2854 90.9565 18.0512 90.9565 19.405C90.9565 21.723 92.2497 22.4888 94.5886 22.4888C96.6591 22.4888 97.8974 21.723 97.8974 19.3777C97.8974 19.0974 97.9249 19.0085 98.2275 19.0085C98.6128 19.0427 99.3832 19.07 99.3832 19.07C99.3832 19.07 100.264 19.0085 100.704 19.0085C100.979 19.0085 101.007 19.0974 101.007 19.3777V21.5247" fill="#000102"/>
<path d="M110.908 25.6548H104.958L103.218 25.7642C102.949 25.7642 102.867 25.6822 102.867 25.4223C102.867 25.2582 102.922 23.9591 102.922 23.9591C102.922 23.9591 102.867 22.8241 102.867 22.6599C102.867 22.3454 102.887 22.2565 103.218 22.2565H104.27C104.875 22.2565 104.958 22.0924 104.958 21.2172V10.8719C104.958 10.5574 105.123 10.0788 105.123 9.85311C105.123 9.62747 104.958 9.51123 104.242 9.51123H102.867C102.557 9.51123 102.475 9.42918 102.475 9.17619C102.475 9.00525 102.557 7.78815 102.557 7.78815C102.557 7.78815 102.475 6.65995 102.475 6.48901C102.475 6.20867 102.509 6.11978 102.839 6.11978H108.762L110.523 6.01038C110.798 6.01038 110.881 6.09243 110.881 6.35226C110.881 6.51636 110.798 7.8155 110.798 7.8155C110.798 7.8155 110.881 8.95055 110.881 9.12149C110.881 9.42918 110.853 9.51123 110.523 9.51123H109.47C108.872 9.51123 108.762 9.68217 108.762 10.5574V20.8753C108.762 21.2446 108.59 21.7505 108.59 21.9488C108.59 22.1745 108.762 22.2565 109.47 22.2565H110.881C111.183 22.2565 111.259 22.3454 111.259 22.5984C111.259 22.7694 111.183 23.9864 111.183 23.9864C111.183 23.9864 111.259 25.1147 111.259 25.2856C111.259 25.5728 111.211 25.6548 110.908 25.6548Z" fill="#000102"/>
<path d="M127.349 22.5162C127.349 22.5162 127.404 24.7521 127.404 25.1487C127.404 25.3675 127.349 25.429 127.129 25.4564C127.019 25.4837 125.092 25.6547 124.57 25.6547H116.411C114.072 25.6547 112.807 24.5196 112.807 22.2632C112.807 21.3265 113.164 20.1367 114.21 18.8991L121.041 10.7008C121.646 9.99656 122.389 9.59998 122.389 9.40169C122.389 9.28545 122.334 9.23075 122.203 9.23075C121.839 9.23075 121.123 9.51109 120.408 9.51109H115.888C114.513 9.51109 113.99 9.77092 113.852 9.77092C113.742 9.77092 113.715 9.73673 113.715 9.59998C113.715 9.37434 113.797 7.9316 113.797 7.9316C113.797 7.9316 113.715 6.76921 113.715 6.48887C113.715 6.11964 113.797 6.09229 114.182 6.09229C114.568 6.09229 115.593 6.11964 116.521 6.11964H125.34C126.496 6.11964 127.211 6.88545 127.211 8.21194C127.211 8.97775 126.853 9.70938 126.166 10.5299L118.069 19.8837C117.099 20.9914 116.253 21.3607 116.253 21.7846C116.253 22.1196 116.631 22.2632 117.842 22.2632H122.169C122.912 22.2632 123.304 22.5436 123.6 22.5436C123.792 22.5436 123.93 22.3726 123.992 21.9213L124.074 20.6222C124.102 20.3145 124.129 20.1367 124.322 20.1367C124.48 20.1367 126.083 20.1983 126.083 20.1983C126.083 20.1983 127.019 20.1367 127.129 20.1367C127.404 20.1367 127.431 20.1983 127.431 20.4513C127.431 20.8752 127.349 22.5162 127.349 22.5162Z" fill="#000102"/>
<path d="M146.48 25.4018C145.847 25.7369 145.104 25.9352 144.354 25.9352C141.878 25.9352 140.805 24.5471 140.805 21.983V18.0514C140.805 17.0599 140.667 16.8069 140.282 16.8069C139.897 16.8069 139.347 17.2582 138.824 17.2582H134.387C133.837 17.2582 133.781 17.6548 133.781 18.1334V23.5352C133.781 24.3557 133.919 25.0052 133.919 25.4018C133.919 25.5728 133.892 25.6822 133.699 25.6822C133.396 25.6822 131.91 25.5728 131.91 25.5728C131.91 25.5728 130.645 25.6822 130.342 25.6822C129.929 25.6822 129.874 25.2856 129.874 23.7334V8.24626C129.874 7.93173 129.84 7.16592 129.84 6.60523C129.84 6.20865 129.874 6.11976 130.149 6.11976C130.672 6.11976 131.718 6.20865 131.718 6.20865C131.718 6.20865 132.928 6.06506 133.506 6.06506C133.781 6.06506 133.837 6.236 133.837 6.46164C133.837 7.02917 133.781 7.59669 133.781 8.13002V13.1625C133.781 13.5864 133.947 13.8668 134.387 13.8668H140.144C140.612 13.8668 140.805 13.6138 140.805 13.1283V8.07532C140.805 7.59669 140.75 7.11122 140.75 6.65993C140.75 6.3454 140.777 6.11976 141.135 6.11976C141.713 6.11976 142.814 6.20865 142.814 6.20865C142.814 6.20865 143.859 6.11976 144.416 6.11976C144.746 6.11976 144.746 6.2907 144.746 6.57788C144.746 6.99498 144.712 7.42575 144.712 7.87703V21.101C144.712 21.8668 144.829 22.4343 145.572 22.4343C146.067 22.4343 146.452 22.0104 146.645 22.0104C146.81 22.0104 146.81 22.1471 146.81 22.2634C146.81 22.6599 146.755 23.6514 146.755 23.6514C146.755 23.6514 146.865 24.4924 146.865 24.9163C146.865 25.0873 146.7 25.2582 146.48 25.4018Z" fill="#000102"/>
<path d="M13.297 7.73342C12.8017 7.73342 12.1964 7.67872 11.7011 7.67872H8.41294C7.89014 7.67872 7.72505 7.87701 7.72505 8.41718V23.1659C7.72505 23.8428 7.80759 25.0599 7.80759 25.2582C7.80759 25.4292 7.72505 25.4291 7.58747 25.4291C7.31231 25.4291 6.75512 25.3744 6.75512 25.3744C6.75512 25.3744 6.14977 25.4291 5.8471 25.4291C5.73703 25.4291 5.682 25.3744 5.682 25.2856C5.682 25.0326 5.76455 24.2121 5.76455 23.6445V8.55393C5.76455 8.30094 5.90213 8.10265 5.90213 7.87701C5.90213 7.70607 5.76455 7.67872 5.62697 7.67872H1.41018C1.01808 7.67872 0.357705 7.79496 0.19261 7.79496C0.0550315 7.79496 0.0275157 7.76077 0.0275157 7.62402C0.0275157 7.33684 0.0550315 6.80351 0.0550315 6.80351C0.0550315 6.80351 0 6.31804 0 6.0924C0 5.86675 0.0275157 5.8394 0.275157 5.8394H11.9212C12.7742 5.8394 13.242 5.64111 13.4346 5.64111C13.5446 5.64111 13.5721 5.69581 13.5721 5.8941C13.5721 6.0924 13.5446 6.68727 13.5446 6.68727C13.5446 6.68727 13.5721 7.1659 13.5721 7.45308C13.5721 7.65137 13.5446 7.73342 13.297 7.73342Z" fill="#000102"/>
<path d="M27.9984 25.4563C26.7051 25.4563 25.405 25.4016 24.1118 25.4016H16.6894C16.4142 25.4016 16.3867 25.3196 16.3867 25.1213C16.3867 24.8341 16.5518 24.2392 16.5518 23.7059V7.08368C16.5518 6.14693 16.827 5.83923 17.7419 5.83923H27.2004C27.393 5.83923 27.5031 5.83923 27.5031 6.06488C27.5031 6.34522 27.4205 6.88539 27.4205 6.88539C27.4205 6.88539 27.4756 7.39821 27.4756 7.6512C27.4756 7.90419 27.4205 7.93154 27.2279 7.93154C26.8702 7.93154 25.632 7.7606 24.8547 7.7606H19.1452C18.5673 7.7606 18.4298 7.84949 18.4298 8.04778C18.4298 8.27342 18.5123 8.41701 18.5123 8.64265V13.7093C18.5123 14.188 18.6774 14.3042 19.1177 14.3042H24.9647C25.2124 14.3042 25.2949 14.3042 25.2949 14.5845C25.2949 14.8102 25.2399 15.2683 25.2399 15.2683C25.2399 15.2683 25.2949 15.7469 25.2949 15.9726C25.2949 16.1982 25.1849 16.2256 24.9923 16.2256H19.2277C18.6224 16.2256 18.5123 16.4238 18.5123 17.0187V22.5435C18.5123 23.3093 18.6774 23.4734 19.4203 23.4734H25.6526C26.1823 23.4734 26.3474 23.3093 26.3749 22.8512L26.4575 21.4358C26.4575 21.2649 26.4575 21.1008 26.6776 21.1008C26.9252 21.1008 27.448 21.1555 27.448 21.1555C27.448 21.1555 27.9158 21.1008 28.1359 21.1008C28.246 21.1008 28.3354 21.1828 28.3354 21.2991C28.3354 21.8666 28.2735 22.9948 28.2735 22.9948C28.2735 22.9948 28.3354 24.7521 28.3354 25.1213C28.3354 25.3196 28.191 25.4563 27.9984 25.4563Z" fill="#000102"/>
<path d="M36.5501 7.45308C35.477 7.45308 34.7616 7.48043 34.2388 7.53513C33.9017 7.56248 33.8192 7.70607 33.8192 7.95906C33.8192 8.27359 33.8742 9.2924 33.8742 9.94197V13.7368C33.8742 14.7009 33.9361 15.0428 34.8442 15.2685C35.477 15.4394 36.4676 15.5488 37.2999 15.5488C39.7832 15.5488 41.2416 14.1608 41.2416 11.5556C41.2416 8.75223 39.8383 7.45308 36.5501 7.45308ZM45.1626 25.4291C44.6948 25.4291 43.7799 25.3471 43.7799 25.3471C43.7799 25.3471 42.9819 25.4291 42.5142 25.4291C42.2872 25.4291 42.2046 25.2582 42.129 25.0599C40.251 20.8685 39.1435 17.7027 37.2999 17.3881C35.8347 17.1351 34.4039 16.8206 34.2113 16.8206C33.9568 16.8206 33.8742 17.0804 33.8742 17.5317V25.0599C33.8742 25.2924 33.8467 25.4291 33.6816 25.4291C33.4065 25.4291 32.8286 25.3471 32.8286 25.3471C32.8286 25.3471 32.2508 25.4291 31.9756 25.4291C31.8931 25.4291 31.8105 25.4291 31.8105 25.3197C31.8105 25.1488 31.9206 25.0052 31.9206 24.8343V6.48898C31.9206 6.1471 31.9756 6.0377 32.2508 5.98299C33.1588 5.77787 35.0368 5.64111 36.5501 5.64111C41.2966 5.64111 43.3672 7.84966 43.3672 11.4462C43.3672 13.9898 41.9295 15.7471 40.1134 16.4856C40.0309 16.5129 39.6732 16.6497 39.6732 16.7659C39.6732 16.9095 39.8383 16.9642 39.9208 17.0189C41.5718 17.9283 42.4867 20.8138 43.2846 22.4821C43.5598 23.077 43.8349 23.6445 44.5503 23.6445H45.1075C45.3277 23.6445 45.3827 23.7061 45.3827 23.8702C45.3827 24.0958 45.3277 24.5539 45.3277 24.5539C45.3277 24.5539 45.3827 24.9779 45.3827 25.1762C45.3827 25.3471 45.3552 25.4291 45.1626 25.4291Z" fill="#000102"/>
<defs>
<linearGradient id="paint0_linear_184_21389" x1="236.797" y1="11.9934" x2="282.608" y2="11.9934" gradientUnits="userSpaceOnUse">
<stop stop-color="#782A63"/>
<stop offset="0.25" stop-color="#A12771"/>
<stop offset="0.81" stop-color="#C93026"/>
<stop offset="1" stop-color="#C93026"/>
</linearGradient>
</defs>
</svg>
