<svg width="24" height="24" viewBox="0 0 24 24" fill="none" xmlns="http://www.w3.org/2000/svg">
<path fill-rule="evenodd" clip-rule="evenodd" d="M17.5709 9.05547C17.1739 9.05547 16.8509 8.73447 16.8509 8.33847C16.8509 6.96647 16.3069 5.68497 15.3184 4.72847C14.3294 3.77347 13.0254 3.26997 11.6464 3.31197C11.2314 3.31897 10.9174 3.01247 10.9054 2.61697C10.8934 2.22147 11.2054 1.89047 11.6029 1.87847C13.3879 1.82397 15.0499 2.47147 16.3204 3.69997C17.5914 4.92797 18.2909 6.57497 18.2909 8.33847C18.2909 8.73447 17.9684 9.05547 17.5709 9.05547ZM13.3159 12.453H12.5879V15.8585C12.5879 16.2545 12.2659 16.576 11.8679 16.576C11.4709 16.576 11.1484 16.2545 11.1484 15.8585V12.453H10.4204C10.0229 12.453 9.70095 12.132 9.70095 11.736C9.70095 11.34 10.0229 11.0185 10.4204 11.0185H13.3154C13.7134 11.0185 14.0354 11.34 14.0354 11.736C14.0354 12.132 13.7139 12.453 13.3159 12.453ZM17.3469 2.71297C15.8064 1.22297 13.7709 0.43797 11.6249 0.50397C7.56845 0.62497 4.22495 3.88197 4.01095 7.91597C3.86995 10.5895 5.08295 13.1215 7.25545 14.6895C7.95245 15.194 8.36945 16.055 8.36945 17.0205C8.36945 17.566 8.81495 18.0105 9.36245 18.0105H14.3739C14.9219 18.0105 15.3669 17.566 15.3669 16.9515C15.3669 16.039 15.7839 15.194 16.4799 14.6905C18.5194 13.219 19.7369 10.844 19.7369 8.33847C19.7369 6.19997 18.8874 4.20247 17.3469 2.71297ZM14.0349 22.783C14.0349 22.387 13.7129 22.066 13.3149 22.066H10.4199C10.0224 22.066 9.70045 22.387 9.70045 22.783C9.70045 23.179 10.0224 23.5 10.4199 23.5H13.3149C13.7129 23.5 14.0349 23.179 14.0349 22.783ZM14.7549 20.1675C14.7549 19.7715 14.4324 19.4505 14.0349 19.4505H9.70045C9.30295 19.4505 8.98045 19.7715 8.98045 20.1675C8.98045 20.563 9.30295 20.8845 9.70045 20.8845H14.0354C14.4324 20.8845 14.7549 20.563 14.7549 20.1675Z" fill="#333333"/>
</svg>
