<svg width="24" height="24" viewBox="0 0 24 24" fill="none" xmlns="http://www.w3.org/2000/svg">
<path d="M19.035 17.8901C17.04 17.8901 15.418 16.3171 15.418 14.3831C15.418 13.0951 16.14 11.9701 17.21 11.3601L18.548 14.6581C18.672 14.9621 19.024 15.1101 19.336 14.9911C19.649 14.8711 19.802 14.5301 19.679 14.2261L18.345 10.9411C18.569 10.8991 18.799 10.8761 19.035 10.8761C21.028 10.8761 22.65 12.4481 22.65 14.3831C22.65 16.3171 21.028 17.8911 19.035 17.8911M4.964 17.8911C2.97 17.8911 1.35 16.3171 1.35 14.3831C1.35 12.4481 2.97 10.8761 4.964 10.8761C6.482 10.8761 7.782 11.7891 8.316 13.0771L8.291 13.0811L4.991 13.4351C4.516 13.4871 4.154 13.9051 4.147 14.3921C4.138 14.8781 4.487 15.2891 4.96 15.3321L8.248 15.6301L8.336 15.6371C7.814 16.9531 6.501 17.8911 4.964 17.8911M19.034 9.56505C18.625 9.56505 18.227 9.62005 17.846 9.71005L17.256 8.25005L16.173 5.20505C16.088 4.96905 15.859 4.80905 15.601 4.80905L12.925 4.80005C12.589 4.79905 12.317 5.06005 12.315 5.38705V5.38805C12.315 5.71305 12.586 5.97605 12.921 5.97805L15.165 5.98505L15.877 7.98905C13.915 8.94205 12.513 10.6871 12.007 12.7131C11.466 12.7571 10.252 12.8781 9.689 12.9331C9.559 12.5361 7.626 8.03105 7.626 8.03105H8.234C8.569 8.03105 8.841 7.76705 8.841 7.44105C8.841 7.11505 8.569 6.85205 8.234 6.85205H5.248C4.913 6.85205 4.641 7.11505 4.641 7.44205C4.641 7.76705 4.913 8.03205 5.248 8.03205H6.32L7.141 10.0611C6.483 9.74705 5.744 9.56505 4.963 9.56505C2.227 9.56505 0 11.7271 0 14.3831C0 17.0381 2.227 19.2001 4.964 19.2001C7.206 19.2001 9.106 17.7481 9.718 15.7631L11.328 15.9091C12.165 15.9831 12.919 15.3351 13.012 14.4611C13.016 14.4131 13.021 14.3151 13.021 14.3151C13.021 14.2871 13.02 14.2611 13.018 14.2341C13.075 12.0741 14.335 10.1091 16.295 9.10305L16.711 10.1281C15.141 10.9381 14.068 12.5411 14.068 14.3831C14.068 17.0381 16.296 19.2001 19.035 19.2001C21.773 19.2001 24 17.0381 24 14.3831C24 11.7271 21.773 9.56505 19.035 9.56505" fill="#333333"/>
</svg>
