<svg width="24" height="24" viewBox="0 0 24 24" fill="none" xmlns="http://www.w3.org/2000/svg">
<path d="M6.5449 16.335C6.5449 15.691 7.0849 15.169 7.7519 15.169C8.4179 15.169 8.9569 15.691 8.9569 16.335C8.9569 16.979 8.4179 17.501 7.7519 17.501C7.0849 17.501 6.5449 16.979 6.5449 16.335V16.335ZM5.3179 10.019C4.5829 10.019 5.7399 3.754 6.2679 3.754H17.5999C18.1739 3.754 19.5169 10.019 18.6159 10.019H5.3179ZM16.2239 17.5C15.5579 17.5 15.0179 16.978 15.0179 16.334C15.0179 15.69 15.5579 15.168 16.2239 15.168C16.8889 15.168 17.4289 15.69 17.4289 16.334C17.4289 16.978 16.8889 17.5 16.2239 17.5V17.5ZM6.7919 20.895L8.0829 19.502C8.7129 19.642 9.2929 19.644 9.7159 19.644H11.0429V19.643H14.2839C14.7059 19.643 15.2849 19.643 15.9159 19.503L17.2069 20.895H6.7919V20.895ZM4.1239 23.77L5.3339 22.466H18.6649L19.8749 23.77C20.1609 24.075 20.6209 24.075 20.9049 23.77C21.1919 23.462 21.1919 22.965 20.9049 22.658L17.3999 18.88C17.4819 18.828 17.5569 18.774 17.6149 18.719C18.2649 18.212 18.8709 17.429 19.3099 16.217C19.9279 14.518 20.3639 13.003 20.4849 11.136C20.6499 8.835 19.6719 5.256 19.0249 3.589L18.7999 3C18.6599 2.626 18.1299 1.829 17.1849 0.876C16.3719 0.06 15.5939 0 14.4079 0H9.5899C8.4049 0 7.6269 0.06 6.8149 0.877C5.8699 1.829 5.3399 2.627 5.1999 3L4.9729 3.59C4.3259 5.257 3.3489 8.834 3.5139 11.137C3.6339 12.997 4.0699 14.513 4.6879 16.216C5.1279 17.429 5.7329 18.211 6.3839 18.718C6.4449 18.77 6.5189 18.824 6.6009 18.876L3.0929 22.658C2.8079 22.965 2.8079 23.462 3.0929 23.77C3.3769 24.075 3.8389 24.075 4.1229 23.77H4.1239Z" fill="#333333"/>
</svg>
